<?xml version="1.0" standalone="no"?>
<!DOCTYPE svg PUBLIC "-//W3C//DTD SVG 20010904//EN"
 "http://www.w3.org/TR/2001/REC-SVG-20010904/DTD/svg10.dtd">
<svg version="1.0" xmlns="http://www.w3.org/2000/svg"
 width="404.000000pt" height="125.000000pt" viewBox="0 0 404.000000 125.000000"
 preserveAspectRatio="xMidYMid meet">

<g transform="translate(0.000000,125.000000) scale(0.100000,-0.100000)"
fill="#000000" stroke="none">
<path d="M0 770 c0 -313 3 -480 10 -480 6 0 10 4 10 8 0 5 12 15 27 23 16 8
31 18 35 24 4 5 6 -2 5 -17 -2 -27 14 -40 22 -17 2 7 -1 9 -9 4 -9 -6 -11 -4
-6 4 5 7 11 10 14 7 3 -3 11 -1 18 5 16 13 26 -2 13 -21 -5 -10 -9 -11 -9 -3
0 7 -10 2 -23 -10 -12 -13 -41 -32 -64 -43 -23 -10 -43 -22 -43 -25 0 -9 51
-21 58 -14 3 3 -3 5 -14 5 -16 0 -17 2 -4 10 23 15 29 12 24 -13 -3 -12 -8
-66 -11 -119 l-5 -98 252 0 251 0 -23 41 c-29 52 -185 202 -200 193 -7 -4 -8
-3 -4 4 4 7 -11 31 -33 55 -23 24 -37 48 -33 52 4 5 2 5 -5 1 -6 -3 -14 -2
-18 4 -3 5 -1 10 6 10 7 0 4 9 -8 23 -12 12 -27 49 -33 84 -7 35 -16 61 -20
58 -11 -7 -25 14 -39 60 -7 22 -15 46 -17 53 -3 6 5 17 18 22 22 10 22 10 -5
7 -26 -4 -27 -3 -12 13 12 13 15 35 13 86 -2 58 2 78 25 126 15 32 38 65 51
73 44 29 130 55 183 55 85 0 203 -56 203 -96 0 -7 9 -15 20 -19 25 -8 70 -62
70 -84 0 -10 -11 -23 -24 -29 -21 -9 -27 -7 -56 30 -42 52 -108 82 -163 75
-27 -4 -36 -2 -26 4 7 5 10 9 4 9 -16 0 -78 -40 -98 -63 -10 -12 -16 -16 -12
-9 6 11 3 11 -13 1 -12 -7 -18 -17 -15 -23 3 -5 1 -6 -5 -2 -17 10 -79 -25
-92 -53 -24 -51 -29 -80 -16 -93 6 -7 17 -29 23 -48 10 -30 11 -22 6 52 -4 81
-3 87 17 98 11 6 28 10 38 9 20 -3 82 10 97 20 6 4 24 8 40 10 17 2 38 7 47
12 9 5 35 9 57 9 40 0 49 -11 42 -52 0 -5 2 -8 6 -9 5 0 16 -2 25 -4 10 -2 22
4 27 12 21 38 31 -1 31 -118 0 -133 -12 -196 -47 -248 -13 -19 -25 -44 -28
-55 -13 -66 -17 -76 -30 -76 -11 0 -12 6 -6 23 17 45 23 99 10 92 -7 -5 -10
-3 -7 6 2 8 17 15 31 17 33 4 43 21 52 90 7 53 1 69 -14 31 -8 -24 -6 -25 -54
36 -27 34 -34 97 -9 88 8 -3 18 0 24 8 8 11 9 11 5 -2 -4 -13 2 -18 25 -21
l30 -5 -6 46 c-3 25 -10 49 -15 54 -16 16 -61 -2 -92 -36 -24 -26 -28 -38 -23
-62 3 -16 10 -34 14 -40 4 -5 7 -21 6 -35 -1 -21 -7 -26 -34 -28 -29 -3 -31
-5 -17 -19 9 -8 22 -12 30 -9 8 3 17 1 20 -4 3 -4 -7 -13 -22 -19 l-28 -11 27
5 c19 4 26 1 24 -10 -1 -8 -5 -18 -9 -21 -13 -13 -7 -42 9 -48 9 -4 14 -13 10
-22 -4 -10 -2 -13 7 -8 6 4 3 -2 -7 -14 -22 -25 -41 -29 -32 -7 3 8 1 15 -4
15 -6 0 -10 -7 -10 -16 0 -25 -113 -10 -146 19 -14 12 -39 25 -56 28 l-30 7
27 -28 c15 -16 33 -26 40 -24 7 3 16 0 21 -7 4 -8 3 -10 -4 -5 -7 4 -12 5 -12
2 0 -2 22 -18 49 -34 27 -17 58 -40 69 -52 27 -29 93 -38 115 -15 9 9 17 11
17 5 0 -6 4 -9 9 -6 7 5 22 -17 23 -34 0 -3 6 -20 13 -37 9 -22 10 -33 3 -33
-7 0 -8 -13 -3 -37 4 -21 8 -54 7 -73 l0 -35 9 40 c7 27 6 48 -1 63 -13 29
-13 29 4 29 8 0 12 -8 9 -21 -4 -18 -3 -19 7 -6 10 13 11 12 6 -3 -3 -10 -9
-36 -12 -58 -5 -31 -3 -39 9 -39 11 0 17 15 22 55 4 30 5 65 2 77 -6 23 17 78
33 78 6 0 10 -8 11 -17 0 -10 2 -28 3 -41 2 -12 -1 -22 -6 -22 -4 0 -8 10 -8
22 0 13 -4 18 -9 13 -5 -6 -11 -45 -13 -87 -5 -70 -3 -78 13 -78 23 0 43 64
43 138 0 32 4 52 11 52 7 0 12 -6 13 -12 1 -7 4 -50 8 -96 10 -116 28 -107 21
11 -3 50 -8 100 -12 110 -4 10 -3 17 4 17 17 0 59 -73 66 -116 4 -22 12 -54
18 -72 l11 -32 1588 0 1588 0 0 625 0 625 -2020 0 -2020 0 0 -480z m1832 378
c-6 -7 -25 -22 -44 -32 -36 -20 -30 -12 16 22 32 25 44 28 28 10z m365 -64
c20 -13 83 -108 83 -126 0 -4 -11 4 -25 18 -14 14 -48 36 -77 49 -37 17 -55
33 -65 56 -7 17 -13 35 -13 40 0 10 62 -13 97 -37z m-424 -29 c4 -24 3 -24
-13 -10 -9 8 -22 15 -28 15 -7 0 -12 5 -12 10 0 6 11 10 24 10 17 0 25 -7 29
-25z m236 7 c7 -14 6 -18 -9 -18 -10 0 -16 4 -13 9 3 5 -1 13 -8 18 -11 7 -10
9 3 9 10 0 22 -8 27 -18z m-324 -91 c0 -67 -1 -69 -18 -53 -11 10 -17 25 -14
39 2 13 0 20 -5 16 -6 -3 -4 5 2 18 11 21 30 49 34 49 0 0 1 -31 1 -69z m185
59 c-20 -13 -40 -13 -40 0 0 6 12 10 28 10 21 0 24 -2 12 -10z m-65 -20 c-3
-5 -13 -10 -21 -10 -8 0 -14 5 -14 10 0 6 9 10 21 10 11 0 17 -4 14 -10z m109
-59 c3 -5 -6 -11 -19 -14 -29 -5 -45 9 -18 16 29 8 32 7 37 -2z m-305 -52
c-29 -58 -20 -81 44 -112 29 -13 70 -44 91 -67 36 -40 86 -131 86 -157 0 -22
74 -85 125 -108 28 -12 138 -46 245 -74 107 -29 224 -61 259 -72 70 -21 65
-22 133 33 25 19 31 20 68 9 52 -15 74 -49 67 -101 -9 -66 -37 -95 -108 -110
-50 -11 -73 -11 -128 0 -36 7 -80 19 -98 27 -18 7 -45 13 -60 13 -36 1 -107
26 -111 40 -2 5 -24 10 -49 10 -29 0 -62 9 -92 24 -25 14 -62 27 -82 30 -21 4
-43 13 -50 22 -7 8 -18 13 -26 10 -8 -3 -12 -2 -9 3 3 4 -20 19 -52 33 -66 29
-196 38 -231 16 -16 -10 -23 -10 -33 0 -28 28 -222 -2 -374 -58 -101 -37 -287
-58 -353 -40 -42 11 -71 41 -71 72 0 10 5 18 10 18 6 0 10 -9 10 -20 0 -19 7
-20 113 -20 142 1 184 10 280 66 44 25 106 51 145 60 72 17 102 36 102 66 0
22 -50 128 -60 128 -16 0 -60 -26 -60 -36 0 -6 -8 -18 -17 -25 -16 -12 -17
-12 -6 2 7 9 10 18 7 22 -9 9 -35 -4 -28 -14 3 -5 -6 -4 -20 3 -15 6 -24 13
-21 16 3 3 0 11 -7 19 -8 11 -7 12 6 7 9 -3 16 -1 16 5 0 6 -4 11 -10 11 -5 0
-10 5 -10 11 0 6 6 9 14 6 8 -3 22 0 32 8 11 7 23 10 29 5 5 -4 21 -11 34 -15
18 -6 23 -4 19 6 -4 9 3 15 20 16 18 1 21 -1 11 -8 -9 -6 -10 -9 -2 -9 6 0 15
5 18 10 4 7 12 7 25 0 17 -9 18 -7 13 25 -4 26 1 45 21 80 15 25 31 45 37 45
6 0 7 5 4 10 -4 6 -3 9 2 8 16 -5 75 51 67 63 -4 7 -3 9 3 6 6 -4 13 0 17 8 3
8 8 15 11 15 3 0 -4 -19 -16 -41z m231 31 c0 -5 -9 -10 -21 -10 -11 0 -17 5
-14 10 3 6 13 10 21 10 8 0 14 -4 14 -10z m554 -56 c3 -8 10 -13 14 -10 5 3
16 -4 25 -15 9 -10 25 -19 34 -19 41 0 93 -21 94 -38 0 -9 9 1 19 24 18 42 35
54 75 54 33 0 45 -21 44 -74 -1 -25 1 -49 4 -53 4 -3 7 1 7 10 0 9 5 39 11 68
l11 51 49 -4 c56 -6 64 -11 56 -33 -4 -9 -18 -15 -36 -15 -17 0 -31 -6 -35
-16 -12 -31 -6 -44 19 -44 37 0 35 -37 -2 -43 -16 -2 -11 -3 10 -2 20 2 34 -1
31 -6 -3 -5 -12 -9 -20 -9 -15 0 -15 -21 1 -32 15 -11 23 0 30 45 3 23 11 66
17 95 10 48 13 52 40 52 26 0 28 -3 28 -39 0 -56 16 -60 24 -6 6 36 11 45 27
45 23 0 23 4 4 -93 -19 -102 -19 -104 9 -104 21 0 25 6 35 68 14 86 14 89 -4
89 -8 0 -15 9 -15 20 0 18 7 20 65 20 52 0 63 -3 59 -15 -3 -8 -14 -17 -24
-20 -13 -4 -22 -23 -30 -63 -6 -31 -13 -70 -17 -86 -3 -16 -1 -26 3 -23 5 3
17 -6 27 -19 15 -20 16 -23 1 -17 -12 4 -15 1 -12 -17 2 -18 15 -27 58 -42 30
-11 67 -22 83 -25 15 -3 27 -9 27 -14 0 -5 20 -19 45 -31 25 -12 45 -25 45
-29 0 -9 -64 -19 -123 -19 -30 0 -46 -4 -42 -10 4 -6 -9 -10 -32 -11 -59 0
-352 -19 -405 -25 -44 -6 -52 -3 -132 50 -97 63 -136 113 -141 183 -2 25 -11
53 -19 62 -9 10 -16 24 -16 33 0 8 -9 23 -20 33 -11 10 -20 24 -20 32 0 8 -7
21 -15 29 -15 16 -20 55 -8 67 11 12 31 7 37 -9z m-444 -14 c0 -5 -11 -10 -25
-10 -14 0 -25 5 -25 10 0 6 11 10 25 10 14 0 25 -4 25 -10z m1931 0 c40 -22
19 -98 -45 -159 -20 -19 -36 -39 -36 -43 0 -4 16 -8 35 -8 28 0 35 -4 35 -20
0 -18 -7 -20 -61 -20 l-61 0 6 32 c4 18 24 51 45 73 42 43 61 75 61 99 0 26
-29 18 -36 -9 -4 -16 -13 -25 -25 -25 -27 0 -24 36 6 65 26 27 46 31 76 15z
m-2016 -10 c-3 -5 -15 -10 -26 -10 -10 0 -19 5 -19 10 0 6 12 10 26 10 14 0
23 -4 19 -10z m1315 -2 c0 -7 -7 -51 -15 -98 -18 -104 -18 -100 -1 -100 15 0
21 12 30 65 22 129 28 145 47 145 10 0 19 -1 19 -3 0 -2 -9 -53 -20 -113 -15
-84 -24 -113 -41 -127 -27 -22 -51 -22 -79 1 -21 17 -22 21 -11 75 6 31 16 82
22 112 8 44 14 55 30 55 10 0 19 -6 19 -12z m208 -5 c12 -23 4 -79 -14 -94
-10 -8 -11 -16 -3 -30 5 -11 8 -23 5 -28 -3 -4 -6 -24 -8 -44 -2 -31 -6 -37
-25 -37 -23 0 -23 2 -17 50 5 42 4 50 -9 50 -11 0 -18 -13 -22 -37 -10 -58
-13 -63 -36 -63 -18 0 -21 4 -16 28 3 15 13 71 23 125 l17 97 48 0 c36 0 51
-5 57 -17z m70 -38 l4 -50 23 53 c18 39 29 52 45 52 17 0 19 -3 11 -17 -33
-63 -72 -159 -77 -193 -5 -33 -11 -40 -29 -40 -22 0 -22 2 -14 41 6 27 6 69
-1 116 -13 97 -14 95 13 91 19 -3 22 -10 25 -53z m268 -67 c-20 -114 -23 -123
-44 -126 -21 -3 -23 -1 -18 25 27 137 29 157 18 161 -19 6 -14 30 8 37 11 3
20 11 20 16 0 5 8 9 18 9 18 0 18 -4 -2 -122z m-1736 42 c0 -5 -14 -10 -31
-10 -17 0 -28 4 -24 10 3 6 17 10 31 10 13 0 24 -4 24 -10z m813 3 c-7 -2 -19
-2 -25 0 -7 3 -2 5 12 5 14 0 19 -2 13 -5z m-898 -13 c-3 -5 -17 -10 -31 -10
-13 0 -24 5 -24 10 0 6 14 10 31 10 17 0 28 -4 24 -10z m1703 -27 c-4 -23 -78
-32 -78 -10 0 21 10 27 47 27 27 0 34 -4 31 -17z m-1603 -13 c4 -6 -8 -10 -30
-10 -22 0 -34 4 -30 10 3 6 17 10 30 10 13 0 27 -4 30 -10z m98 -17 c-7 -2
-19 -2 -25 0 -7 3 -2 5 12 5 14 0 19 -2 13 -5z m-913 -98 c-13 -14 -28 -25
-33 -25 -6 0 0 11 13 25 13 14 28 25 33 25 6 0 0 -11 -13 -25z m-90 -70 c0 -8
-6 -15 -14 -15 -8 0 -39 -24 -69 -54 -49 -47 -129 -94 -112 -65 4 6 -4 8 -20
5 -15 -3 -48 -1 -74 4 -25 5 -63 12 -83 15 -39 6 -53 25 -18 25 10 0 33 13 49
29 21 21 43 31 78 35 104 13 160 19 200 21 24 0 46 4 49 8 11 10 14 9 14 -8z
m308 -9 c-6 -14 -17 -27 -25 -30 -9 -4 -7 4 7 24 26 36 33 39 18 6z m-836 -58
c-7 -7 -12 -8 -12 -2 0 6 3 14 7 17 3 4 9 5 12 2 2 -3 -1 -11 -7 -17z m-418
-54 c3 -8 2 -12 -4 -9 -5 3 -12 -10 -16 -30 -3 -19 -11 -38 -17 -42 -6 -4 -8
2 -3 18 3 13 9 36 12 52 7 30 19 35 28 11z m59 -89 c-2 -8 -12 -11 -21 -7 -15
5 -16 4 -2 -14 14 -17 14 -18 -2 -6 -10 8 -16 19 -15 25 1 7 -4 11 -11 9 -8
-1 -11 2 -7 8 4 7 12 7 25 0 30 -16 35 -12 12 10 -12 12 -22 24 -22 27 0 4 11
-4 24 -16 14 -13 22 -29 19 -36z m1610 18 c-13 -2 -33 -2 -45 0 -13 2 -3 4 22
4 25 0 35 -2 23 -4z m-1599 -108 c14 -13 20 -65 8 -65 -15 0 -33 26 -24 35 4
5 -1 5 -10 2 -20 -7 -33 7 -22 24 4 8 9 7 16 -2 8 -11 9 -11 5 1 -2 9 -16 15
-35 15 -41 1 -48 9 -25 33 19 20 23 18 87 -43z m22 35 c1 -16 -2 -27 -7 -24
-7 4 -7 28 0 52 3 9 6 -3 7 -28z m3585 -32 c54 -29 99 -56 99 -60 0 -20 -80
-4 -140 26 l-64 33 -61 -33 c-40 -22 -72 -32 -97 -31 -21 0 -38 4 -38 7 0 5
189 109 198 110 2 0 48 -24 103 -52z m139 7 c16 -19 6 -45 -19 -45 -23 0 -35
28 -20 46 15 18 24 18 39 -1z m-3863 -11 c-3 -3 -12 -4 -19 -1 -8 3 -5 6 6 6
11 1 17 -2 13 -5z m628 -4 c3 -5 -1 -10 -10 -10 -9 0 -13 5 -10 10 3 6 8 10
10 10 2 0 7 -4 10 -10z m2850 -119 c-4 -25 -9 -49 -11 -52 -7 -13 -74 -8 -89
7 -20 21 -19 36 6 68 16 21 28 26 61 24 l40 -1 -7 -46z m83 32 c2 -8 -5 -13
-18 -13 l-22 0 22 -18 c14 -11 19 -23 15 -35 -9 -21 -52 -34 -67 -19 -15 15
-1 31 25 26 l22 -5 -22 17 c-26 19 -29 34 -11 52 15 15 50 12 56 -5z m46 -20
c-4 -21 -11 -46 -16 -56 -16 -30 -26 -9 -17 35 4 24 8 46 9 51 0 4 7 7 15 7
13 0 15 -7 9 -37z m122 18 c-2 -9 -7 -32 -10 -52 -6 -33 -9 -35 -44 -36 -45
-1 -62 11 -62 45 0 41 26 61 76 60 36 0 44 -4 40 -17z m101 4 c8 -22 -10 -88
-26 -93 -11 -4 -13 4 -7 37 6 37 4 42 -11 39 -11 -2 -21 -18 -26 -41 -5 -21
-15 -37 -23 -37 -17 0 -17 -3 -3 58 10 49 10 50 50 50 26 1 42 -4 46 -13z
m-3833 -71 c18 -7 12 -24 -10 -24 -8 0 -14 7 -14 15 0 17 2 18 24 9z"/>
<path d="M2365 851 c-3 -5 -2 -12 3 -15 5 -3 9 1 9 9 0 17 -3 19 -12 6z"/>
<path d="M2632 818 c-29 -29 5 -69 39 -47 11 7 11 9 -3 9 -11 0 -15 6 -11 19
6 23 -10 34 -25 19z"/>
<path d="M2882 730 c0 -14 2 -19 5 -12 2 6 2 18 0 25 -3 6 -5 1 -5 -13z"/>
<path d="M2745 689 c-4 -6 -5 -12 -2 -15 2 -3 7 2 10 11 7 17 1 20 -8 4z"/>
<path d="M2870 680 c0 -11 5 -20 10 -20 6 0 10 9 10 20 0 11 -4 20 -10 20 -5
0 -10 -9 -10 -20z"/>
<path d="M3050 624 c0 -8 5 -12 10 -9 6 3 10 10 10 16 0 5 -4 9 -10 9 -5 0
-10 -7 -10 -16z"/>
<path d="M3316 794 c-4 -20 -5 -38 -2 -41 12 -12 37 22 34 45 -5 39 -25 37
-32 -4z"/>
<path d="M3935 251 c-8 -15 3 -31 21 -31 9 0 14 7 12 17 -4 20 -24 28 -33 14z
m25 -11 c0 -5 -4 -10 -10 -10 -5 0 -10 5 -10 10 0 6 5 10 10 10 6 0 10 -4 10
-10z"/>
<path d="M3506 124 c-8 -21 1 -34 24 -34 19 0 34 25 24 41 -9 15 -41 10 -48
-7z"/>
<path d="M3757 133 c-4 -3 -7 -15 -7 -25 0 -29 44 -20 48 10 3 16 -2 22 -16
22 -10 0 -22 -3 -25 -7z"/>
<path d="M450 919 c-11 -7 -4 -8 25 -3 50 8 58 14 19 14 -16 0 -36 -5 -44 -11z"/>
<path d="M558 923 c6 -2 18 -2 25 0 6 3 1 5 -13 5 -14 0 -19 -2 -12 -5z"/>
<path d="M336 711 c-3 -5 4 -12 17 -16 19 -6 17 -8 -16 -15 -38 -7 -75 -30
-48 -30 7 0 21 5 32 10 13 7 19 7 19 0 0 -12 26 -14 33 -2 2 4 2 1 1 -5 -6
-23 23 -14 40 12 15 23 15 27 2 40 -16 16 -71 20 -80 6z"/>
<path d="M166 633 c-6 -14 -5 -15 5 -6 7 7 10 15 7 18 -3 3 -9 -2 -12 -12z"/>
<path d="M355 545 c-32 -42 -30 -69 5 -71 39 -2 60 9 30 16 -14 4 -28 2 -31
-3 -4 -5 -9 -5 -13 1 -3 5 8 28 24 51 37 50 23 55 -15 6z"/>
<path d="M45 309 c-4 -6 -3 -15 3 -21 6 -6 11 -4 15 6 7 18 -9 31 -18 15z"/>
<path d="M796 130 c6 -36 11 -46 18 -39 2 2 -3 20 -10 39 l-14 35 6 -35z"/>
<path d="M721 14 c0 -11 3 -14 6 -6 3 7 2 16 -1 19 -3 4 -6 -2 -5 -13z"/>
</g>
</svg>
